<?xml version="1.0" encoding="UTF-8" standalone="no"?>
<!-- Created with Inkscape (http://www.inkscape.org/) -->

<svg
   width="210mm"
   height="297mm"
   viewBox="0 0 210 297"
   version="1.1"
   id="svg5"
   inkscape:version="1.2.1 (9c6d41e410, 2022-07-14)"
   sodipodi:docname="drawing.svg"
   xmlns:inkscape="http://www.inkscape.org/namespaces/inkscape"
   xmlns:sodipodi="http://sodipodi.sourceforge.net/DTD/sodipodi-0.dtd"
   xmlns:xlink="http://www.w3.org/1999/xlink"
   xmlns="http://www.w3.org/2000/svg"
   xmlns:svg="http://www.w3.org/2000/svg">
  <sodipodi:namedview
     id="namedview7"
     pagecolor="#ffffff"
     bordercolor="#000000"
     borderopacity="0.25"
     inkscape:showpageshadow="2"
     inkscape:pageopacity="0.0"
     inkscape:pagecheckerboard="0"
     inkscape:deskcolor="#d1d1d1"
     inkscape:document-units="mm"
     showgrid="false"
     inkscape:zoom="1.2614777"
     inkscape:cx="458.58918"
     inkscape:cy="464.93095"
     inkscape:window-width="1633"
     inkscape:window-height="1457"
     inkscape:window-x="30"
     inkscape:window-y="31"
     inkscape:window-maximized="1"
     inkscape:current-layer="layer1" />
  <defs
     id="defs2" />
  <g
     inkscape:label="Layer 1"
     inkscape:groupmode="layer"
     id="layer1">
    <path
       style="fill:#800000;stroke:#aa0000;stroke-width:0.264583"
       id="path397"
       d="m 64.998382,145.41626 c 0.714449,-1.98915 1.79527,-3.83595 2.880461,-5.64075 1.606349,-2.67154 2.000292,-3.19775 3.782409,-5.88679 0.787077,-1.1539 1.575324,-2.30701 2.361237,-3.46171 1.520441,-2.23389 3.473339,-5.05632 4.875125,-7.36586 1.432158,-2.35959 2.965249,-5.22053 4.203287,-7.69603 0.572069,-1.14388 1.102323,-2.30819 1.653487,-3.46229 1.120619,-2.49073 2.184953,-5.0075 3.187737,-7.54804 0.525912,-1.33239 1.009367,-2.67891 1.54817,-4.00619 0.345538,-0.821707 0.751163,-1.617722 1.213702,-2.379695 0.07048,-0.116102 0.522644,-0.835496 0.666805,-0.972968 0.06259,-0.05969 0.157925,-0.07056 0.23689,-0.105842 -1.090936,-0.543128 -2.126515,-1.215686 -3.272801,-1.629391 -0.202893,-0.07322 0.245692,0.360225 0.318646,0.563216 0.134318,0.373742 0.209735,0.766347 0.298312,1.15349 0.109588,0.478962 0.729009,3.57 0.772801,3.77704 0.179596,0.84914 0.37158,1.69562 0.557371,2.54342 0.916659,4.12649 2.393886,8.09909 4.187946,11.91931 1.02152,2.1752 1.815055,3.6346 2.924882,5.75206 2.483681,4.5952 5.020251,9.1609 7.352651,13.8355 1.01571,2.04304 1.94905,4.13777 3.18991,6.058 0.49257,0.73128 1.12415,1.33492 1.83041,1.85414 1.02964,0.83514 0.77093,0.64105 3.5742,1.36887 0.26962,0.07 -0.4121,-0.37513 -0.62553,-0.55412 -1.5326,-1.28535 -3.13875,-2.47122 -4.7474,-3.65834 -3.13845,-2.23933 -6.33534,-4.39727 -9.440806,-6.68284 -1.932403,-1.42221 -2.153745,-1.62141 -3.996243,-3.07607 -2.294191,-1.81545 -4.438438,-3.80852 -6.674762,-5.69243 -0.507506,-0.42753 -1.010685,-0.86117 -1.53833,-1.26358 -0.54633,-0.41666 -1.121045,-0.79471 -1.681567,-1.19206 -0.579705,-0.35019 -1.148623,-0.71888 -1.739115,-1.05056 -1.602652,-0.9002 -3.197907,-1.81655 -4.839104,-2.6444 -0.59223,-0.29873 -1.227903,-0.50306 -1.851089,-0.73026 -1.525489,-0.55617 -2.204564,-0.71281 -3.746648,-1.20153 -0.63918,-0.20257 -1.27445,-0.41728 -1.911678,-0.62592 -1.700178,-0.67622 -2.030442,-0.75315 -3.641799,-1.60894 -0.587949,-0.31225 -1.1874,-0.61177 -1.731275,-0.99568 -0.433334,-0.30588 1.733643,1.17094 1.39786,0.76033 -0.04301,-0.0526 -2.911586,-1.77211 -3.0285,-1.84245 -2.791222,-1.38943 -5.370518,-3.43606 -8.369456,-4.44011 -0.07445,-0.0527 -0.299731,-0.20803 -0.223353,-0.15814 1.15997,0.75759 2.237711,1.65658 3.474283,2.28138 0.278228,0.14058 0.622014,-0.0451 0.933606,-0.0542 0.663266,-0.0194 1.32692,-0.0412 1.9904,-0.0315 2.54758,0.0372 3.667966,0.16146 6.30025,0.35324 4.339852,0.38279 8.649017,1.03217 12.975106,1.53478 2.288524,0.26588 5.228005,0.60191 7.555875,0.64323 1.138542,0.0202 2.276552,-0.0637 3.414826,-0.0955 4.925783,-0.29856 9.676419,-1.64683 14.448909,-2.7881 1.72913,-0.40214 3.48094,-0.71765 5.25511,-0.81498 0.6797,-0.0179 1.36013,-0.0267 2.04008,-0.0186 0.5146,0.006 0.32704,-0.0255 0.68281,0.0691 -1.12838,-0.70942 -2.18858,-1.5411 -3.38514,-2.12826 -0.15892,-0.078 -0.31855,0.15449 -0.47722,0.23295 -1.50455,0.74389 -2.99452,1.49667 -4.46216,2.31219 -2.58556,1.3945 -4.55839,3.54003 -6.394034,5.78196 -1.44105,1.78509 -3.010662,3.48113 -4.877705,4.83003 -0.375359,0.27118 -0.770027,0.51459 -1.155041,0.77189 -1.600922,1.01201 -3.319023,1.8213 -4.950182,2.78042 -1.126879,0.6626 -1.692471,1.07161 -2.786991,1.8121 -2.907318,2.10138 -5.686549,4.37106 -8.4963,6.59907 -1.693794,1.31079 -3.381063,2.62917 -5.041254,3.98218 -1.014265,0.86319 -2.001568,1.75675 -3.102512,2.50984 -0.672209,0.42268 -1.403088,0.73292 -2.08103,1.14519 -0.869043,0.53021 -1.512274,1.33615 -2.21588,2.0557 -0.468085,0.47042 -0.91925,0.95411 -1.361906,1.44814 0,0 3.375681,2.03659 3.375681,2.03659 v 0 c 0.42168,-0.4988 0.853916,-0.9855 1.30778,-1.45579 0.678331,-0.70221 1.325438,-1.45876 2.181643,-1.95281 0.695592,-0.39179 1.434965,-0.70972 2.079935,-1.18726 1.073417,-0.79573 2.065991,-1.68672 3.075987,-2.56008 1.622192,-1.36885 3.253431,-2.72672 4.903221,-4.06233 2.765542,-2.26255 5.523773,-4.54016 8.458788,-6.58314 1.406194,-0.91856 1.393809,-0.94038 2.816849,-1.75655 1.650825,-0.94681 3.366794,-1.78007 4.973529,-2.80362 0.392639,-0.26411 0.796531,-0.51222 1.177917,-0.79233 1.874708,-1.3769 3.456355,-3.10356 4.924675,-4.89437 0.85162,-1.03001 1.68651,-2.08468 2.6551,-3.01021 1.09243,-1.04387 2.3099,-1.93782 3.63137,-2.67077 1.22328,-0.65326 2.44882,-1.26298 3.71974,-1.81824 0.29259,-0.12783 0.58848,-0.24805 0.88064,-0.37685 0.20624,-0.0909 0.77191,-0.12096 0.61446,-0.28224 -0.91471,-0.93691 -2.109,-1.55245 -3.1635,-2.32867 -0.90782,0.0266 -1.81734,-0.0256 -2.72389,0.045 -1.72981,0.16942 -3.42709,0.56638 -5.10786,0.99836 -4.645878,1.25327 -9.290268,2.6336 -14.125157,2.92171 -1.122916,0.0314 -2.245501,0.10972 -3.368747,0.0941 -2.2846,-0.0317 -5.179039,-0.32538 -7.426547,-0.57352 -4.377211,-0.48329 -8.735396,-1.12551 -13.111411,-1.61899 -2.897558,-0.25349 -5.800643,-0.54006 -8.71206,-0.57389 -0.362161,-0.004 -1.295775,-0.25815 -1.085924,0.037 1.374283,1.9332 1.763525,2.04442 3.060348,2.512 0.89272,0.33711 1.753243,0.74476 2.598248,1.18829 0.370917,0.1947 1.457431,0.82495 1.105326,0.59801 -0.591232,-0.38108 -1.215974,-0.70747 -1.823961,-1.0612 2.61819,1.55874 5.215443,3.13723 7.852778,4.66809 1.730052,1.00422 3.510047,1.91548 5.415148,2.54601 1.880039,0.61444 3.79722,1.15003 5.64801,1.85004 0.620297,0.23461 1.206428,0.95387 1.839796,0.75726 0.517678,-0.1607 -1.868376,-1.06059 -1.347661,-0.91003 0.650513,0.1881 1.168459,0.68476 1.752688,1.02715 0.560345,0.3878 1.135602,0.7549 1.681035,1.16341 0.53403,0.39997 1.042559,0.83306 1.555036,1.2603 2.265211,1.88845 4.424304,3.90283 6.737797,5.73408 1.882359,1.48313 2.083432,1.66637 4.056761,3.11634 3.0851,2.26687 6.262707,4.40447 9.364707,6.64781 1.75864,1.30833 1.80397,1.31027 3.40449,2.61192 0.35998,0.29276 0.7177,0.58855 1.0669,0.89409 0.18474,0.16164 0.31402,0.39837 0.53421,0.50687 1.25789,0.61982 2.57417,1.11341 3.86519,1.66089 0.0439,0.0186 -0.0817,-0.0492 -0.12261,-0.0738 -0.71549,-0.5208 -1.43541,-1.03053 -1.95971,-1.76339 -1.36282,-1.90826 -2.34858,-4.05301 -3.44254,-6.1189 -2.44002,-4.68633 -5.02166,-9.29445 -7.55318,-13.9316 -1.111788,-2.08302 -1.955031,-3.60346 -2.968244,-5.74705 -1.781993,-3.77006 -3.23726,-7.69658 -4.081907,-11.78828 -0.163994,-0.83389 -0.341543,-1.66523 -0.491983,-2.50167 -0.290179,-1.61339 -0.505923,-3.240653 -0.785307,-4.856175 -0.04434,-0.256381 0.07522,-0.619503 -0.138274,-0.768215 -1.146712,-0.798748 -2.48359,-1.28202 -3.725386,-1.923029 -0.0917,0.08243 -0.197091,0.151816 -0.275119,0.247299 -0.122891,0.150383 -0.575476,0.91673 -0.640815,1.031591 -0.450538,0.792004 -0.845635,1.613961 -1.170827,2.465679 -0.5023,1.356013 -0.91999,2.7332 -1.38232,4.10319 -0.875276,2.59365 -1.830769,5.16059 -2.891356,7.68454 -1.397498,3.09964 -1.84099,4.2246 -3.497427,7.28658 -2.782043,5.1427 -6.168234,9.91162 -9.586219,14.64363 -2.552862,3.66036 -5.18926,7.29467 -7.292472,11.23995 0,0 3.447888,1.94249 3.447888,1.94249 z" />
    <use
       id="use457"
       inkscape:spray-origin="#path397"
       xlink:href="#path397"
       transform="translate(-11.338287,48.636367)" />
    <use
       id="use459"
       inkscape:spray-origin="#path397"
       xlink:href="#path397"
       transform="translate(42.986772,45.866402)" />
    <use
       id="use461"
       inkscape:spray-origin="#path397"
       xlink:href="#path397"
       transform="translate(61.110644,-70.589615)" />
    <use
       id="use463"
       inkscape:spray-origin="#path397"
       xlink:href="#path397"
       transform="translate(-36.376785,-85.659649)" />
  </g>
</svg>
